<svg fill="none" height="256" viewBox="0 0 256 256" width="256" xmlns="http://www.w3.org/2000/svg" xmlns:xlink="http://www.w3.org/1999/xlink"><clipPath id="a"><path d="m0 0h256v256h-256z"/></clipPath><g clip-path="url(#a)" fill="#000"><path clip-rule="evenodd" d="m72 0c-39.7645 0-72 32.2355-72 72v112c0 39.764 32.2355 72 72 72h112c39.764 0 72-32.236 72-72v-112c0-39.7645-32.236-72-72-72zm31.867 176.156c9.687-2.804 22.42-3.111 23.975-3.14h.157s13.798.151 24.131 3.14c8.805 2.55 15.715 2.675 20.046 2.754.75.013 1.423.026 2.015.049 4.012.16 22.214-.477 34.096-8.493 11.884-8.013 20.409-23.616 20.009-40.461-.4-16.842-10.467-33.2639-37.165-44.1215-19.494-7.9264-42.089-10.5632-63.132-10.5632-21.047 0-43.642 2.6368-63.1364 10.5632-26.6976 10.8576-36.7616 27.2795-37.1616 44.1215-.4 16.845 8.1248 32.448 20.0064 40.461 11.8816 8.016 30.0864 8.653 34.096 8.493.5918-.023 1.2646-.036 2.0147-.049 4.3321-.079 11.2444-.204 20.0489-2.754z" fill-rule="evenodd"/><path d="m81.7593 121.278c9.2512-.358 17.0144 2.704 23.4267 9.034 4.576 4.515 5.063 10.304 1.444 14.406-3.664 4.157-9.3219 4.291-14.4131.343-7.8304-6.068-12.9376-6.093-21.008-.112-5.6064 4.156-11.5648 4.032-14.864-.704-3.68-5.28-2.4544-10.122 2.176-14.314 6.6592-6.029 14.448-8.982 23.2384-8.653z"/><path d="m174.548 121.278c9.252-.358 17.015 2.704 23.428 9.034 4.576 4.515 5.062 10.304 1.443 14.406-3.664 4.157-9.322 4.291-14.413.343-7.83-6.068-12.938-6.093-21.008-.112-5.606 4.156-11.565 4.032-14.864-.704-3.68-5.28-2.454-10.122 2.176-14.314 6.659-6.029 14.448-8.982 23.238-8.653z"/></g></svg>